# xmcd CD database file
#
# Track frame offsets:
#	150
#	21403
#	44748
#	59169
#	80756
#	96162
#	112037
#	137647
#	154517
#	167926
#	184108
#	208413
#	231163
#	250139
#
# Disc length: 3539 seconds
#
# Revision: 1
# Processed by: cddbd v1.5.2PL0 Copyright (c) Steve Scherf et al.
# Submitted via: CDex 1.51
#
DISCID=d30dd10e
DTITLE=Михаил Щербаков - Ложный шаг
DYEAR=1998
DGENRE=Blues
TTITLE0=Чужая музыка 1
TTITLE1=Циркач
TTITLE2=Ложный шаг
TTITLE3=Ночной дозор
TTITLE4=Красные ворота
TTITLE5=Рыба
TTITLE6=Два слова рыбы
TTITLE7=Звездочёт
TTITLE8=От Рождества
TTITLE9=Чужая музыка 2
TTITLE10=Варьете
TTITLE11=Жалоба
TTITLE12=Интермедия 4
TTITLE13=К речи
EXTD=YEAR: 1998
EXTT0=
EXTT1=
EXTT2=
EXTT3=
EXTT4=
EXTT5=
EXTT6=
EXTT7=
EXTT8=
EXTT9=
EXTT10=
EXTT11=
EXTT12=
EXTT13=
PLAYORDER=
